<svg xmlns="http://www.w3.org/2000/svg" viewBox="0 0 1600 900" fill="none">
  <defs>
    <linearGradient id="bg" x1="0" y1="0" x2="1600" y2="900" gradientUnits="userSpaceOnUse">
      <stop stop-color="#EAF3FF"/>
      <stop offset="0.5" stop-color="#F9FCFF"/>
      <stop offset="1" stop-color="#E6F0FF"/>
    </linearGradient>
    <radialGradient id="glowBlue" cx="0" cy="0" r="1" gradientUnits="userSpaceOnUse" gradientTransform="translate(350 180) rotate(90) scale(220 340)">
      <stop stop-color="#1A73E8" stop-opacity="0.25"/>
      <stop offset="1" stop-color="#1A73E8" stop-opacity="0"/>
    </radialGradient>
    <radialGradient id="glowTeal" cx="0" cy="0" r="1" gradientUnits="userSpaceOnUse" gradientTransform="translate(1260 710) rotate(90) scale(240 360)">
      <stop stop-color="#10B981" stop-opacity="0.2"/>
      <stop offset="1" stop-color="#10B981" stop-opacity="0"/>
    </radialGradient>
    <filter id="softShadow" x="0" y="0" width="1600" height="900" filterUnits="userSpaceOnUse">
      <feDropShadow dx="0" dy="18" stdDeviation="22" flood-color="#12345A" flood-opacity="0.12"/>
    </filter>
  </defs>

  <rect width="1600" height="900" rx="40" fill="url(#bg)"/>
  <rect width="1600" height="900" fill="url(#glowBlue)"/>
  <rect width="1600" height="900" fill="url(#glowTeal)"/>

  <g opacity="0.18" stroke="#1A73E8" stroke-width="2">
    <path d="M60 135C220 70 360 60 540 102"/>
    <path d="M1060 132C1215 96 1360 104 1540 160"/>
    <path d="M88 774C234 716 406 706 598 740"/>
    <path d="M1012 760C1150 708 1318 698 1510 730"/>
  </g>

  <g filter="url(#softShadow)">
    <rect x="132" y="206" width="508" height="374" rx="30" fill="#FFFFFF" fill-opacity="0.86"/>
    <rect x="165" y="244" width="442" height="42" rx="14" fill="#EAF3FF"/>
    <rect x="165" y="304" width="126" height="184" rx="18" fill="#DCEBFF"/>
    <rect x="307" y="304" width="126" height="184" rx="18" fill="#EFF6FF"/>
    <rect x="449" y="304" width="126" height="184" rx="18" fill="#DCEBFF"/>
    <rect x="188" y="333" width="80" height="10" rx="5" fill="#8CB7F8"/>
    <rect x="188" y="357" width="60" height="10" rx="5" fill="#9EC3FB"/>
    <rect x="330" y="333" width="80" height="10" rx="5" fill="#8CB7F8"/>
    <rect x="330" y="357" width="60" height="10" rx="5" fill="#9EC3FB"/>
    <rect x="472" y="333" width="80" height="10" rx="5" fill="#8CB7F8"/>
    <rect x="472" y="357" width="60" height="10" rx="5" fill="#9EC3FB"/>
    <rect x="210" y="406" width="36" height="46" rx="10" fill="#1A73E8" fill-opacity="0.18"/>
    <rect x="352" y="406" width="36" height="46" rx="10" fill="#1A73E8" fill-opacity="0.18"/>
    <rect x="494" y="406" width="36" height="46" rx="10" fill="#1A73E8" fill-opacity="0.18"/>
  </g>

  <g filter="url(#softShadow)">
    <rect x="880" y="170" width="540" height="230" rx="32" fill="#FFFFFF" fill-opacity="0.84"/>
    <rect x="920" y="216" width="156" height="116" rx="24" fill="#1A73E8" fill-opacity="0.12"/>
    <path d="M953 254H1017L1042 282H1043C1049 282 1054 287 1054 293V307C1054 313 1049 318 1043 318H953C947 318 942 313 942 307V265C942 259 947 254 953 254Z" fill="#1A73E8" fill-opacity="0.45"/>
    <rect x="1110" y="226" width="266" height="18" rx="9" fill="#D8E8FF"/>
    <rect x="1110" y="257" width="212" height="14" rx="7" fill="#E6F1FF"/>
    <rect x="1110" y="289" width="234" height="14" rx="7" fill="#E6F1FF"/>
    <rect x="1110" y="321" width="170" height="14" rx="7" fill="#E6F1FF"/>
  </g>

  <g filter="url(#softShadow)">
    <rect x="770" y="470" width="640" height="252" rx="34" fill="#FFFFFF" fill-opacity="0.84"/>
    <rect x="818" y="520" width="230" height="140" rx="24" fill="#F3F8FF"/>
    <circle cx="935" cy="590" r="48" fill="#1A73E8" fill-opacity="0.12"/>
    <circle cx="935" cy="590" r="26" stroke="#1A73E8" stroke-width="10" stroke-linecap="round"/>
    <path d="M935 590L952 572" stroke="#1A73E8" stroke-width="10" stroke-linecap="round"/>
    <rect x="1082" y="530" width="278" height="16" rx="8" fill="#DCEBFF"/>
    <rect x="1082" y="560" width="244" height="14" rx="7" fill="#EEF5FF"/>
    <rect x="1082" y="590" width="214" height="14" rx="7" fill="#EEF5FF"/>
    <rect x="1082" y="620" width="190" height="14" rx="7" fill="#EEF5FF"/>
  </g>

  <g opacity="0.28">
    <circle cx="146" cy="134" r="16" fill="#1A73E8"/>
    <circle cx="1494" cy="144" r="12" fill="#10B981"/>
    <circle cx="1420" cy="782" r="18" fill="#1A73E8"/>
    <circle cx="210" cy="772" r="11" fill="#10B981"/>
  </g>
</svg>